<svg width="40" height="40" viewBox="0 0 40 40" fill="none" xmlns="http://www.w3.org/2000/svg">
<path d="M19.9937 28.065C19.3037 28.065 18.7437 27.505 18.7437 26.815V16.9431C18.7437 16.2531 19.3037 15.6931 19.9937 15.6931C20.6837 15.6931 21.2437 16.2531 21.2437 16.9431V26.815C21.2437 27.5056 20.6843 28.065 19.9937 28.065Z" fill="black"/>
<path d="M19.9937 14.4437C19.6625 14.4437 19.3437 14.3125 19.1125 14.075C18.875 13.8437 18.7437 13.525 18.7437 13.1937C18.7437 12.8625 18.875 12.5437 19.1125 12.3125C19.575 11.8437 20.4125 11.8437 20.875 12.3062C21.1125 12.5437 21.2437 12.8625 21.2437 13.1937C21.2437 13.5187 21.1125 13.8437 20.875 14.075C20.6437 14.3125 20.325 14.4437 19.9937 14.4437Z" fill="black"/>
<path d="M19.9519 36.2481C18.53 36.2481 17.1206 36.0631 15.7625 35.6975C9.91 34.1231 5.3275 29.275 4.08813 23.3456C2.825 17.305 5.15626 10.955 10.0281 7.16813C12.8444 4.97875 16.3963 3.7725 20.03 3.7725C22.5456 3.7725 25.0438 4.3575 27.255 5.46313C32.7156 8.195 36.2438 13.9025 36.2438 20.0044C36.2438 24.9831 33.8944 29.7819 29.9594 32.8406C27.1331 35.0381 23.5788 36.2481 19.9519 36.2481ZM20.0306 6.2725C16.95 6.2725 13.9425 7.29125 11.5631 9.14188C7.44 12.3469 5.46625 17.7213 6.53563 22.8337C7.58438 27.8494 11.4613 31.9512 16.4125 33.2831C17.5588 33.5912 18.75 33.7481 19.9519 33.7481H19.9525C23.0263 33.7481 26.035 32.725 28.4256 30.8669C31.7563 28.2781 33.7444 24.2175 33.7444 20.0044C33.7444 14.8413 30.7588 10.0113 26.1375 7.69938C24.2713 6.76625 22.16 6.2725 20.0306 6.2725Z" fill="black"/>
</svg>
