<svg width="40" height="40" viewBox="0 0 40 40" fill="none" xmlns="http://www.w3.org/2000/svg">
<g clip-path="url(#clip0)">
<path d="M26.5982 8.62778C26.2719 8.62778 25.9725 8.41606 25.8626 8.10934C25.7539 7.80637 25.8473 7.45887 26.0928 7.25067C26.3487 7.03364 26.7252 7.00575 27.0104 7.18278C27.2833 7.35223 27.4272 7.68395 27.3638 7.99887C27.2912 8.35926 26.9667 8.62778 26.5982 8.62778Z" fill="black"/>
<path d="M27.6555 18.9537C25.4083 18.9537 23.5801 17.1262 23.5801 14.8801C23.5801 12.6339 25.4083 10.8065 27.6555 10.8065C29.9027 10.8065 31.7309 12.6339 31.7309 14.8801C31.7309 17.1262 29.9027 18.9537 27.6555 18.9537ZM27.6555 12.3689C26.2698 12.3689 25.1425 13.4954 25.1425 14.8801C25.1425 16.2647 26.2698 17.3912 27.6555 17.3912C29.0411 17.3912 30.1685 16.2647 30.1685 14.8801C30.1685 13.4954 29.0411 12.3689 27.6555 12.3689Z" fill="black"/>
<path d="M39.8962 25.6068L37.0257 14.7396V10.061C37.0257 8.77398 36.21 7.67394 35.0684 7.25075L34.5634 5.33879C34.1274 3.68783 32.4262 2.69826 30.7713 3.13309C30.7713 3.13309 15.906 7.04349 15.8611 7.06513H5.97015C4.31818 7.06513 2.97424 8.40907 2.97424 10.061V10.5135L2.3156 10.6866C1.51242 10.8974 0.840027 11.4082 0.422386 12.1246C0.00583933 12.8389 -0.107281 13.6724 0.103804 14.4715L2.97424 25.3389V30.0173C2.97424 31.3128 3.80093 32.4189 4.95448 32.8358L5.43665 34.6614C5.80312 36.0491 7.06355 36.9694 8.43896 36.9694C8.69989 36.9694 8.96488 36.9363 9.2287 36.867L23.899 33.0131H34.0299C35.6819 33.0131 37.0258 31.6691 37.0258 30.0172V29.5647L37.6844 29.3917C38.4876 29.1806 39.1601 28.6699 39.5777 27.9535C39.9941 27.2394 40.1072 26.4059 39.8962 25.6068ZM1.61445 14.0725C1.51 13.6773 1.56609 13.265 1.7721 12.9116C1.97936 12.556 2.31341 12.3025 2.71261 12.1976L2.97424 12.1289V19.2209L1.61445 14.0725ZM13.523 31.4507H7.41978L14.5895 21.2036L18.1178 26.2464L13.523 31.4507ZM8.83161 35.3559C8.00929 35.5718 7.16346 35.0815 6.94722 34.2624L6.61724 33.0132H17.7495L8.83161 35.3559ZM15.6073 31.4507L22.5453 23.5925L29.4833 31.4507H15.6073ZM34.0298 31.4507H31.5676L23.1309 21.8951C22.9826 21.7272 22.7694 21.631 22.5453 21.631C22.3213 21.631 22.108 21.7272 21.9597 21.8951L19.1818 25.0415L15.2296 19.393C15.0835 19.1841 14.8445 19.0597 14.5896 19.0597C14.3346 19.0597 14.0957 19.1841 13.9495 19.393L5.55563 31.3896C4.96667 31.2114 4.53669 30.6636 4.53669 30.0173V10.0609C4.53669 9.27044 5.17971 8.62742 5.97015 8.62742H23.0522C23.4836 8.62742 23.8334 8.27767 23.8334 7.8462C23.8334 7.41473 23.4836 7.06498 23.0522 7.06498H21.953L31.1684 4.64413C31.9913 4.42804 32.8364 4.91849 33.0527 5.7376L33.4034 7.06498H30.1153C29.684 7.06498 29.3341 7.41473 29.3341 7.8462C29.3341 8.27767 29.684 8.62742 30.1153 8.62742H34.0298C34.8202 8.62742 35.4633 9.27044 35.4633 10.0609V30.0173C35.4633 30.8077 34.8203 31.4507 34.0298 31.4507ZM38.2279 27.1667C38.0206 27.5222 37.6866 27.7758 37.2873 27.8806L37.0257 27.9494V20.8575L38.3856 26.0058C38.4899 26.401 38.4339 26.8133 38.2279 27.1667Z" fill="black"/>
</g>
<defs>
<clipPath id="clip0">
<rect width="40" height="40" fill="white"/>
</clipPath>
</defs>
</svg>
